<svg xmlns="http://www.w3.org/2000/svg" xmlns:xlink="http://www.w3.org/1999/xlink" width="32" height="32" viewBox="0 0 32 32">
  <defs>
    <clipPath id="clip-path">
      <rect width="32" height="32" fill="none"/>
    </clipPath>
  </defs>
  <g id="S_LiveEngageAvatarOutline_50_N" transform="translate(0)" clip-path="url(#clip-path)">
    <circle id="Ellipse_6873" data-name="Ellipse 6873" cx="16" cy="16" r="16" fill="#e1e1e1"/>
    <path id="Path_39322" data-name="Path 39322" d="M29.192,12.808h-.16a11.511,11.511,0,0,0-11.255-9.73H17.52a11.511,11.511,0,0,0-11.255,9.73H6.109a1.6,1.6,0,0,0-1.6,1.607V19.22a1.6,1.6,0,0,0,1.6,1.6H7.388a.641.641,0,0,0,.641-.641L8.01,13.413a.57.57,0,0,0-.424-.547A10.223,10.223,0,0,1,17.52,4.355h.257a10.223,10.223,0,0,1,9.933,8.511.57.57,0,0,0-.424.547s-.019,6.737-.019,7.571a3.71,3.71,0,0,1-1.19,2.377,5.457,5.457,0,0,1-3.546,1.311h-2.9a2.362,2.362,0,0,0-1.988-1.02c-1.227,0-2.223.746-2.223,1.667s1,1.667,2.223,1.667a2.3,2.3,0,0,0,2.044-1.032h2.838a6.739,6.739,0,0,0,4.38-1.619,4.472,4.472,0,0,0,1.49-2.645l.121-.868h.669a1.6,1.6,0,0,0,1.6-1.6v-4.81A1.6,1.6,0,0,0,29.192,12.808Z" transform="translate(-1.648 -1.136)" fill="#4b4b4b"/>
    <g id="Group_68013" data-name="Group 68013" transform="translate(7.343 4.938)">
      <path id="Path_39323" data-name="Path 39323" d="M35.2,43.4c-.818-.151-1.558-.181-1.924-.305a2.4,2.4,0,0,1-1.523-2.347H30.472A3.838,3.838,0,0,0,32.191,43.9c.58.381,2.65.863,3.156.381C35.657,43.983,35.62,43.48,35.2,43.4Z" transform="translate(-18.306 -19.588)" fill="#4b4b4b"/>
      <path id="Path_39324" data-name="Path 39324" d="M20.157,7.75c-4.612,0-8.657,4.185-8.657,9.138v.947c0,5.217,3.362,9.6,3.929,10.3,0,1.714-.457,2.815-1.782,3.122-.185.043-.929.149-1.692.328a.482.482,0,0,0-.146.877c.636.4,2.317.029,3.026-.31,1.676-.8,1.876-2.641,1.876-4.132v-.351l-.225-.268c-.037-.044-3.7-4.475-3.7-9.568v-.947a8.437,8.437,0,0,1,2.193-5.571,7.017,7.017,0,0,1,10.362,0,8.437,8.437,0,0,1,2.193,5.571v.947a13.275,13.275,0,0,1-1.913,7.182,4.168,4.168,0,0,0,1.878-.755,15.316,15.316,0,0,0,1.317-6.428v-.947C28.815,11.935,24.769,7.75,20.157,7.75Z" transform="translate(-11.5 -7.75)" fill="#4b4b4b"/>
    </g>
  </g>
</svg>
