
<svg xmlns="http://www.w3.org/2000/svg" viewBox="0 0 48 48" width="48" height="48" stroke="#0C96C4" fill="#0C96C4">
<title stroke="#0C96C4" fill="#0C96C4">water surface</title>
<g class="nc-icon-wrapper" stroke-linecap="square" stroke-linejoin="miter" stroke-width="4" fill="#ffffff" stroke="#ffffff">
<path d="M2,37a10.127,10.127,0,0,0,7.5-3.4,9.97,9.97,0,0,0,15,0,9.978,9.978,0,0,0,14.5.537A9.962,9.962,0,0,0,46,37" fill="none" stroke="#ffffff" stroke-miterlimit="10"></path> 
<path d="M2,25a10.127,10.127,0,0,0,7.5-3.4,9.97,9.97,0,0,0,15,0,9.978,9.978,0,0,0,14.5.537A9.962,9.962,0,0,0,46,25" fill="none" stroke-miterlimit="10" data-color="color-2" stroke="#0C96C4"></path> 
<path d="M2,13A10.127,10.127,0,0,0,9.5,9.6a9.97,9.97,0,0,0,15,0,9.978,9.978,0,0,0,14.5.537A9.962,9.962,0,0,0,46,13" fill="none" stroke="#ffffff" stroke-miterlimit="10"></path></g></svg>